solid 
facet normal -1 -0 -0
 outer loop
  vertex -0.0041925 0 -0.0041925
  vertex -0.0041925 0 0.0041925
  vertex -0.0041925 0.03144 -0.0041925
 endloop
endfacet
facet normal -1 0 0
 outer loop
  vertex -0.0041925 0.03144 0.0041925
  vertex -0.0041925 0.03144 -0.0041925
  vertex -0.0041925 0 0.0041925
 endloop
endfacet
facet normal 1 0 0
 outer loop
  vertex 0.0041925 0 -0.0041925
  vertex 0.0041925 0.03144 -0.0041925
  vertex 0.0041925 0 0.0041925
 endloop
endfacet
facet normal 1 0 -0
 outer loop
  vertex 0.0041925 0.03144 0.0041925
  vertex 0.0041925 0 0.0041925
  vertex 0.0041925 0.03144 -0.0041925
 endloop
endfacet
facet normal -0 -0 -1
 outer loop
  vertex -0.0041925 0 -0.0041925
  vertex -0.0041925 0.03144 -0.0041925
  vertex 0.0041925 0 -0.0041925
 endloop
endfacet
facet normal 0 0 -1
 outer loop
  vertex 0.0041925 0.03144 -0.0041925
  vertex 0.0041925 0 -0.0041925
  vertex -0.0041925 0.03144 -0.0041925
 endloop
endfacet
facet normal 0 0 1
 outer loop
  vertex -0.0041925 0 0.0041925
  vertex 0.0041925 0 0.0041925
  vertex -0.0041925 0.03144 0.0041925
 endloop
endfacet
facet normal 0 -0 1
 outer loop
  vertex 0.0041925 0.03144 0.0041925
  vertex -0.0041925 0.03144 0.0041925
  vertex 0.0041925 0 0.0041925
 endloop
endfacet
endsolid 
